<?xml version="1.0" encoding="UTF-8" standalone="no"?>
<!DOCTYPE svg PUBLIC "-//W3C//DTD SVG 1.1//EN" "http://www.w3.org/Graphics/SVG/1.1/DTD/svg11.dtd">
<svg width="256px" height="256px" viewBox="0 0 2390 2343" version="1.1" xmlns="http://www.w3.org/2000/svg" xmlns:xlink="http://www.w3.org/1999/xlink" xml:space="preserve" xmlns:serif="http://www.serif.com/" style="fill-rule:evenodd;clip-rule:evenodd;stroke-linejoin:round;stroke-miterlimit:2;">
    <g transform="matrix(4.16667,0,0,4.16667,-3201.65,-3039.55)">
        <path d="M1198.48,1000.88L1167.07,1019.02L1167.07,887.258L1057.99,824.284L1057.99,793.919L1198.48,875.036L1198.48,1000.88ZM1129.85,1040.51L1089.49,1063.82L980.491,1000.88L980.491,869.129L1020.86,845.823L1129.85,908.75L1129.85,1040.51ZM1052.59,1115.85L911.862,1034.6L911.862,908.75L943.271,890.62L943.271,1022.38L1052.59,1085.5L1052.59,1115.85ZM1057.99,750.935L1043.5,742.567L1020.86,729.492L1020.86,742.567L1020.77,742.567L1020.77,802.888L874.629,887.258L874.629,1056.09L1052.59,1158.84L1089.34,1180.05L1089.49,1180.14L1089.49,1137.15L1089.34,1137.07L1089.34,1106.72L1089.49,1106.8L1235.72,1022.38L1235.72,853.532L1057.99,750.935Z" style="fill:rgb(57,120,189);fill-rule:nonzero;"/>
    </g>
    <g transform="matrix(4.16667,0,0,4.16667,-3201.65,-3039.55)">
        <rect x="891.915" y="1245.51" width="32.754" height="12.95" style="fill:rgb(57,120,189);fill-rule:nonzero;"/>
    </g>
    <g transform="matrix(4.16667,0,0,4.16667,-3201.65,-3039.55)">
        <path d="M817.146,1287.02C812.068,1289.94 805.72,1291.72 799.372,1291.72C787.185,1291.72 777.917,1284.74 777.917,1270.65L777.917,1239.03L768.395,1239.03L768.395,1225.58L777.917,1225.58L777.917,1206.79L797.341,1206.79L797.341,1225.58L815.877,1225.58L815.877,1239.16L797.341,1239.16L797.341,1267.35C797.341,1273.06 799.753,1275.34 803.943,1275.22C806.482,1275.22 809.529,1274.33 813.083,1272.68L817.146,1287.02Z" style="fill:rgb(57,120,189);fill-rule:nonzero;"/>
    </g>
    <g transform="matrix(4.16667,0,0,4.16667,-3201.65,-3039.55)">
        <path d="M879.604,1229.26L872.876,1242.59C865.386,1238.4 857.768,1235.99 852.055,1235.99C847.485,1235.99 844.184,1237.51 844.184,1241.07C844.184,1251.35 880.239,1246.14 880.112,1270.27C880.112,1284.23 867.797,1291.59 852.309,1291.59C841.264,1291.59 830.473,1288.29 822.728,1282.07L829.076,1268.87C836.185,1274.33 845.327,1277.38 852.817,1277.38C857.768,1277.38 861.45,1275.73 861.45,1272.04C861.45,1261.13 826.03,1266.97 826.03,1242.97C826.03,1228.88 838.09,1221.64 852.944,1221.64C862.339,1221.64 871.987,1224.43 879.604,1229.26Z" style="fill:rgb(57,120,189);fill-rule:nonzero;"/>
    </g>
    <g transform="matrix(4.16667,0,0,4.16667,-3201.65,-3039.55)">
        <path d="M990.176,1256.94C990.176,1245.76 983.193,1238.02 973.163,1238.02C963.007,1238.02 956.024,1245.89 955.897,1256.94C956.024,1268.11 962.88,1275.85 973.163,1275.85C983.193,1275.85 990.176,1268.11 990.176,1256.94ZM1009.6,1290.83L990.176,1290.83L990.176,1280.8C985.351,1287.79 977.988,1291.59 968.593,1291.59C949.169,1291.59 936.347,1277.5 936.347,1256.43C936.347,1235.61 949.042,1221.77 968.085,1221.77C977.734,1221.77 985.224,1225.58 990.176,1232.56L990.176,1196.63L1009.6,1196.63L1009.6,1290.83Z" style="fill:rgb(57,120,189);fill-rule:nonzero;"/>
    </g>
    <g transform="matrix(4.16667,0,0,4.16667,-3201.65,-3039.55)">
        <path d="M1074.6,1251.1C1074.34,1242.08 1068.5,1236.24 1059.49,1236.24C1050.86,1236.24 1045.02,1242.08 1043.49,1251.1L1074.6,1251.1ZM1092.88,1262.65L1043.87,1262.65C1046.16,1271.28 1052.76,1276.36 1061.52,1276.36C1067.99,1276.36 1074.09,1273.82 1078.79,1269.12L1089.07,1279.53C1082.21,1287.15 1072.18,1291.59 1059.87,1291.59C1038.03,1291.59 1024.2,1277.63 1024.2,1256.94C1024.2,1235.86 1038.54,1221.9 1059.36,1221.9C1083.36,1221.9 1094.53,1237.77 1092.88,1262.65Z" style="fill:rgb(57,120,189);fill-rule:nonzero;"/>
    </g>
    <g transform="matrix(4.16667,0,0,4.16667,-3201.65,-3039.55)">
        <path d="M1128.93,1219.87L1128.93,1225.58L1145.05,1225.58L1145.05,1239.16L1128.93,1239.16L1128.93,1290.83L1109.5,1290.83L1109.5,1239.16L1100.36,1239.16L1100.36,1225.58L1109.5,1225.58L1109.5,1219.1C1109.5,1203.87 1120.93,1195.74 1134.64,1195.74C1140.99,1195.74 1147.72,1197.39 1152.54,1200.57L1145.56,1214.79C1143.02,1212.88 1139.85,1211.87 1137.05,1211.87C1132.48,1211.87 1128.93,1214.41 1128.93,1219.87Z" style="fill:rgb(57,120,189);fill-rule:nonzero;"/>
    </g>
    <g transform="matrix(4.16667,0,0,4.16667,-3201.65,-3039.55)">
        <path d="M1166.5,1256.94C1166.5,1268.11 1173.36,1275.73 1183.52,1275.73C1193.55,1275.73 1200.53,1268.11 1200.53,1256.94C1200.53,1245.76 1193.55,1238.15 1183.52,1238.15C1173.36,1238.15 1166.5,1245.76 1166.5,1256.94ZM1220.08,1256.68C1220.08,1277.5 1205.35,1291.59 1183.52,1291.59C1161.55,1291.59 1146.83,1277.5 1146.83,1256.68C1146.83,1235.73 1161.55,1221.9 1183.52,1221.9C1205.35,1221.9 1220.08,1235.73 1220.08,1256.68Z" style="fill:rgb(57,120,189);fill-rule:nonzero;"/>
    </g>
    <g transform="matrix(4.16667,0,0,4.16667,-3201.65,-3039.55)">
        <rect x="1234.55" y="1196.63" width="19.55" height="94.2" style="fill:rgb(57,120,189);fill-rule:nonzero;"/>
    </g>
    <g transform="matrix(4.16667,0,0,4.16667,-3201.65,-3039.55)">
        <path d="M1322.53,1256.94C1322.53,1245.76 1315.54,1238.02 1305.51,1238.02C1295.36,1238.02 1288.37,1245.89 1288.25,1256.94C1288.37,1268.11 1295.23,1275.85 1305.51,1275.85C1315.54,1275.85 1322.53,1268.11 1322.53,1256.94ZM1341.95,1290.83L1322.53,1290.83L1322.53,1280.8C1317.7,1287.79 1310.34,1291.59 1300.94,1291.59C1281.52,1291.59 1268.7,1277.5 1268.7,1256.43C1268.7,1235.61 1281.39,1221.77 1300.44,1221.77C1310.08,1221.77 1317.57,1225.58 1322.53,1232.56L1322.53,1196.63L1341.95,1196.63L1341.95,1290.83Z" style="fill:rgb(57,120,189);fill-rule:nonzero;"/>
    </g>
</svg>
