<?xml version="1.0" encoding="UTF-8" standalone="no"?>
<!DOCTYPE svg PUBLIC "-//W3C//DTD SVG 1.1//EN" "http://www.w3.org/Graphics/SVG/1.1/DTD/svg11.dtd">
<svg width="100%" height="100%" viewBox="0 0 2390 2619" version="1.1" xmlns="http://www.w3.org/2000/svg" xmlns:xlink="http://www.w3.org/1999/xlink" xml:space="preserve" xmlns:serif="http://www.serif.com/" style="fill-rule:evenodd;clip-rule:evenodd;stroke-linejoin:round;stroke-miterlimit:2;">
    <g transform="matrix(4.16667,0,0,4.16667,-12581,-2901.78)">
        <path d="M3449.52,967.813L3418.11,985.954L3418.11,854.194L3309.03,791.219L3309.03,760.855L3449.52,841.971L3449.52,967.813ZM3380.89,1007.45L3340.52,1030.75L3231.53,967.813L3231.53,836.064L3271.89,812.759L3380.89,875.686L3380.89,1007.45ZM3303.63,1082.79L3162.9,1001.54L3162.9,875.686L3194.31,857.556L3194.31,989.316L3303.63,1052.43L3303.63,1082.79ZM3309.03,717.871L3294.54,709.503L3271.89,696.427L3271.89,709.503L3271.81,709.503L3271.81,769.823L3125.66,854.194L3125.66,1023.03L3303.63,1125.77L3340.38,1146.99L3340.52,1147.07L3340.52,1104.09L3340.38,1104L3340.38,1073.65L3340.52,1073.73L3486.75,989.316L3486.75,820.467L3309.03,717.871Z" style="fill:rgb(57,120,189);fill-rule:nonzero;"/>
    </g>
    <g transform="matrix(4.16667,0,0,4.16667,-12581,-2901.78)">
        <rect x="3142.95" y="1212.45" width="32.75" height="12.94" style="fill:rgb(57,120,189);fill-rule:nonzero;"/>
    </g>
    <g transform="matrix(4.16667,0,0,4.16667,-12581,-2901.78)">
        <path d="M3068.18,1253.96C3063.1,1256.88 3056.75,1258.66 3050.41,1258.66C3038.22,1258.66 3028.95,1251.67 3028.95,1237.58L3028.95,1205.97L3019.43,1205.97L3019.43,1192.51L3028.95,1192.51L3028.95,1173.72L3048.38,1173.72L3048.38,1192.51L3066.91,1192.51L3066.91,1206.1L3048.38,1206.1L3048.38,1234.28C3048.38,1239.99 3050.79,1242.28 3054.98,1242.15C3057.52,1242.15 3060.56,1241.26 3064.12,1239.61L3068.18,1253.96Z" style="fill:rgb(57,120,189);fill-rule:nonzero;"/>
    </g>
    <g transform="matrix(4.16667,0,0,4.16667,-12581,-2901.78)">
        <path d="M3130.64,1196.2L3123.91,1209.53C3116.42,1205.34 3108.8,1202.92 3103.09,1202.92C3098.52,1202.92 3095.22,1204.45 3095.22,1208C3095.22,1218.29 3131.27,1213.08 3131.15,1237.2C3131.15,1251.17 3118.83,1258.53 3103.34,1258.53C3092.3,1258.53 3081.51,1255.23 3073.76,1249.01L3080.11,1235.81C3087.22,1241.26 3096.36,1244.31 3103.85,1244.31C3108.8,1244.31 3112.48,1242.66 3112.48,1238.98C3112.48,1228.06 3077.06,1233.9 3077.06,1209.91C3077.06,1195.81 3089.12,1188.58 3103.98,1188.58C3113.37,1188.58 3123.02,1191.37 3130.64,1196.2Z" style="fill:rgb(57,120,189);fill-rule:nonzero;"/>
    </g>
    <g transform="matrix(4.16667,0,0,4.16667,-12581,-2901.78)">
        <path d="M3241.21,1223.87C3241.21,1212.7 3234.23,1204.96 3224.2,1204.96C3214.04,1204.96 3207.06,1212.83 3206.93,1223.87C3207.06,1235.04 3213.91,1242.79 3224.2,1242.79C3234.23,1242.79 3241.21,1235.04 3241.21,1223.87ZM3260.63,1257.77L3241.21,1257.77L3241.21,1247.74C3236.39,1254.72 3229.02,1258.53 3219.63,1258.53C3200.2,1258.53 3187.38,1244.44 3187.38,1223.36C3187.38,1202.54 3200.08,1188.71 3219.12,1188.71C3228.77,1188.71 3236.26,1192.51 3241.21,1199.5L3241.21,1163.57L3260.63,1163.57L3260.63,1257.77Z" style="fill:rgb(57,120,189);fill-rule:nonzero;"/>
    </g>
    <g transform="matrix(4.16667,0,0,4.16667,-12581,-2901.78)">
        <path d="M3325.63,1218.03C3325.38,1209.02 3319.54,1203.18 3310.52,1203.18C3301.89,1203.18 3296.05,1209.02 3294.53,1218.03L3325.63,1218.03ZM3343.91,1229.58L3294.91,1229.58C3297.19,1238.22 3303.79,1243.3 3312.55,1243.3C3319.03,1243.3 3325.12,1240.76 3329.82,1236.06L3340.1,1246.47C3333.25,1254.09 3323.22,1258.53 3310.9,1258.53C3289.07,1258.53 3275.23,1244.57 3275.23,1223.87C3275.23,1202.8 3289.58,1188.83 3310.4,1188.83C3334.39,1188.83 3345.56,1204.7 3343.91,1229.58Z" style="fill:rgb(57,120,189);fill-rule:nonzero;"/>
    </g>
    <g transform="matrix(4.16667,0,0,4.16667,-12581,-2901.78)">
        <path d="M3379.96,1186.8L3379.96,1192.51L3396.09,1192.51L3396.09,1206.1L3379.96,1206.1L3379.96,1257.77L3360.54,1257.77L3360.54,1206.1L3351.4,1206.1L3351.4,1192.51L3360.54,1192.51L3360.54,1186.04C3360.54,1170.8 3371.96,1162.68 3385.68,1162.68C3392.02,1162.68 3398.75,1164.33 3403.58,1167.5L3396.59,1181.72C3394.05,1179.82 3390.88,1178.8 3388.09,1178.8C3383.52,1178.8 3379.96,1181.34 3379.96,1186.8Z" style="fill:rgb(57,120,189);fill-rule:nonzero;"/>
    </g>
    <g transform="matrix(4.16667,0,0,4.16667,-12581,-2901.78)">
        <path d="M3417.54,1223.87C3417.54,1235.04 3424.39,1242.66 3434.55,1242.66C3444.58,1242.66 3451.56,1235.04 3451.56,1223.87C3451.56,1212.7 3444.58,1205.08 3434.55,1205.08C3424.39,1205.08 3417.54,1212.7 3417.54,1223.87ZM3471.11,1223.62C3471.11,1244.44 3456.39,1258.53 3434.55,1258.53C3412.59,1258.53 3397.86,1244.44 3397.86,1223.62C3397.86,1202.67 3412.59,1188.83 3434.55,1188.83C3456.39,1188.83 3471.11,1202.67 3471.11,1223.62Z" style="fill:rgb(57,120,189);fill-rule:nonzero;"/>
    </g>
    <g transform="matrix(4.16667,0,0,4.16667,-12581,-2901.78)">
        <rect x="3485.58" y="1163.57" width="19.55" height="94.2" style="fill:rgb(57,120,189);fill-rule:nonzero;"/>
    </g>
    <g transform="matrix(4.16667,0,0,4.16667,-12581,-2901.78)">
        <path d="M3573.56,1223.87C3573.56,1212.7 3566.58,1204.96 3556.55,1204.96C3546.39,1204.96 3539.41,1212.83 3539.28,1223.87C3539.41,1235.04 3546.26,1242.79 3556.55,1242.79C3566.58,1242.79 3573.56,1235.04 3573.56,1223.87ZM3592.98,1257.77L3573.56,1257.77L3573.56,1247.74C3568.74,1254.72 3561.37,1258.53 3551.98,1258.53C3532.55,1258.53 3519.73,1244.44 3519.73,1223.36C3519.73,1202.54 3532.43,1188.71 3551.47,1188.71C3561.12,1188.71 3568.61,1192.51 3573.56,1199.5L3573.56,1163.57L3592.98,1163.57L3592.98,1257.77Z" style="fill:rgb(57,120,189);fill-rule:nonzero;"/>
    </g>
    <g transform="matrix(4.16667,0,0,4.16667,-12581,-2901.78)">
        <path d="M3370.06,1285.4C3366.39,1281.73 3360.44,1281.73 3356.77,1285.4L3356.09,1286.08L3355.41,1285.4C3351.74,1281.73 3345.79,1281.73 3342.11,1285.4C3338.45,1289.07 3338.45,1295.03 3342.11,1298.7L3343.65,1300.23L3356.09,1312.65L3368.53,1300.22L3370.06,1298.7C3373.74,1295.03 3373.74,1289.07 3370.06,1285.4Z" style="fill:rgb(57,120,189);fill-rule:nonzero;"/>
    </g>
    <g transform="matrix(4.16667,0,0,4.16667,-12581,-2901.78)">
        <path d="M3085.61,1282.6L3073.13,1282.6L3073.13,1280.32L3100.61,1280.32L3100.61,1282.6L3088.14,1282.6L3088.14,1314.98L3085.61,1314.98L3085.61,1282.6Z" style="fill:rgb(57,120,189);fill-rule:nonzero;"/>
    </g>
    <g transform="matrix(4.16667,0,0,4.16667,-12581,-2901.78)">
        <path d="M3125.12,1289.13L3111.85,1318.5C3109.77,1323.25 3107.2,1324.79 3103.78,1324.79C3101.45,1324.79 3099.27,1323.99 3097.79,1322.46L3099.03,1320.58C3100.36,1321.96 3101.9,1322.61 3103.83,1322.61C3106.21,1322.61 3107.94,1321.52 3109.52,1318L3110.91,1314.88L3099.27,1289.13L3101.9,1289.13L3112.25,1312.26L3122.6,1289.13L3125.12,1289.13Z" style="fill:rgb(57,120,189);fill-rule:nonzero;"/>
    </g>
    <g transform="matrix(4.16667,0,0,4.16667,-12581,-2901.78)">
        <path d="M3153.79,1302.06C3153.79,1295.57 3149.28,1291.17 3143.34,1291.17C3137.4,1291.17 3132.94,1295.57 3132.94,1302.06C3132.94,1308.55 3137.4,1312.95 3143.34,1312.95C3149.28,1312.95 3153.79,1308.55 3153.79,1302.06ZM3156.26,1302.06C3156.26,1309.83 3150.77,1315.18 3143.49,1315.18C3138.93,1315.18 3135.07,1312.95 3132.99,1309.09L3132.99,1324.59L3130.52,1324.59L3130.52,1289.13L3132.89,1289.13L3132.89,1295.22C3134.92,1291.26 3138.83,1288.94 3143.49,1288.94C3150.77,1288.94 3156.26,1294.33 3156.26,1302.06Z" style="fill:rgb(57,120,189);fill-rule:nonzero;"/>
    </g>
    <g transform="matrix(4.16667,0,0,4.16667,-12581,-2901.78)">
        <path d="M3163.59,1300.72L3183.4,1300.72C3183.05,1295.13 3178.99,1291.12 3173.49,1291.12C3168,1291.12 3163.99,1295.08 3163.59,1300.72ZM3185.77,1302.65L3163.54,1302.65C3163.79,1308.79 3168.29,1312.95 3174.48,1312.95C3177.75,1312.95 3180.77,1311.76 3182.75,1309.34L3184.19,1310.97C3181.91,1313.74 3178.34,1315.18 3174.43,1315.18C3166.61,1315.18 3161.11,1309.73 3161.11,1302.06C3161.11,1294.38 3166.41,1288.94 3173.49,1288.94C3180.57,1288.94 3185.82,1294.28 3185.82,1301.96C3185.82,1302.16 3185.77,1302.4 3185.77,1302.65Z" style="fill:rgb(57,120,189);fill-rule:nonzero;"/>
    </g>
    <g transform="matrix(4.16667,0,0,4.16667,-12581,-2901.78)">
        <path d="M3190.77,1310.53L3191.91,1308.64C3194.29,1311.12 3198.69,1313 3203.35,1313C3210.28,1313 3213.35,1309.98 3213.35,1306.22C3213.35,1295.82 3191.71,1302.06 3191.71,1289.28C3191.71,1284.38 3195.47,1280.07 3203.99,1280.07C3207.8,1280.07 3211.77,1281.26 3214.44,1283.19L3213.5,1285.22C3210.63,1283.24 3207.11,1282.3 3203.99,1282.3C3197.26,1282.3 3194.24,1285.42 3194.24,1289.23C3194.24,1299.63 3215.87,1293.49 3215.87,1306.07C3215.87,1310.97 3211.96,1315.23 3203.4,1315.23C3198.25,1315.23 3193.3,1313.3 3190.77,1310.53Z" style="fill:rgb(57,120,189);fill-rule:nonzero;"/>
    </g>
    <g transform="matrix(4.16667,0,0,4.16667,-12581,-2901.78)">
        <path d="M3220.82,1302.06C3220.82,1294.33 3226.32,1288.94 3233.9,1288.94C3238.01,1288.94 3241.57,1290.52 3243.7,1293.69L3241.87,1295.03C3239.99,1292.4 3237.11,1291.17 3233.9,1291.17C3227.81,1291.17 3223.35,1295.52 3223.35,1302.06C3223.35,1308.59 3227.81,1312.95 3233.9,1312.95C3237.11,1312.95 3239.99,1311.71 3241.87,1309.09L3243.7,1310.43C3241.57,1313.55 3238.01,1315.18 3233.9,1315.18C3226.32,1315.18 3220.82,1309.73 3220.82,1302.06Z" style="fill:rgb(57,120,189);fill-rule:nonzero;"/>
    </g>
    <g transform="matrix(4.16667,0,0,4.16667,-12581,-2901.78)">
        <path d="M3263.36,1288.94L3263.36,1291.36C3263.16,1291.36 3262.96,1291.31 3262.76,1291.31C3257.02,1291.31 3253.6,1295.13 3253.6,1301.51L3253.6,1314.98L3251.12,1314.98L3251.12,1289.13L3253.5,1289.13L3253.5,1294.78C3255.09,1291.02 3258.5,1288.94 3263.36,1288.94Z" style="fill:rgb(57,120,189);fill-rule:nonzero;"/>
    </g>
    <g transform="matrix(4.16667,0,0,4.16667,-12581,-2901.78)">
        <path d="M3270.19,1289.13L3272.66,1289.13L3272.66,1314.98L3270.19,1314.98L3270.19,1289.13ZM3269.4,1280.87C3269.4,1279.78 3270.29,1278.84 3271.43,1278.84C3272.56,1278.84 3273.46,1279.73 3273.46,1280.82C3273.46,1281.96 3272.56,1282.85 3271.43,1282.85C3270.29,1282.85 3269.4,1281.96 3269.4,1280.87Z" style="fill:rgb(57,120,189);fill-rule:nonzero;"/>
    </g>
    <g transform="matrix(4.16667,0,0,4.16667,-12581,-2901.78)">
        <path d="M3306.38,1302.06C3306.38,1295.57 3301.88,1291.17 3295.93,1291.17C3289.99,1291.17 3285.54,1295.57 3285.54,1302.06C3285.54,1308.55 3289.99,1312.95 3295.93,1312.95C3301.88,1312.95 3306.38,1308.55 3306.38,1302.06ZM3308.86,1302.06C3308.86,1309.83 3303.36,1315.18 3296.08,1315.18C3291.53,1315.18 3287.66,1312.95 3285.59,1309.09L3285.59,1324.59L3283.11,1324.59L3283.11,1289.13L3285.49,1289.13L3285.49,1295.22C3287.52,1291.26 3291.43,1288.94 3296.08,1288.94C3303.36,1288.94 3308.86,1294.33 3308.86,1302.06Z" style="fill:rgb(57,120,189);fill-rule:nonzero;"/>
    </g>
    <g transform="matrix(4.16667,0,0,4.16667,-12581,-2901.78)">
        <path d="M3329.35,1313.35C3328.07,1314.59 3325.99,1315.18 3324.06,1315.18C3319.5,1315.18 3317.03,1312.51 3317.03,1308.15L3317.03,1291.26L3312.27,1291.26L3312.27,1289.13L3317.03,1289.13L3317.03,1283.49L3319.5,1283.49L3319.5,1289.13L3327.72,1289.13L3327.72,1291.26L3319.5,1291.26L3319.5,1307.9C3319.5,1311.22 3321.13,1313.05 3324.3,1313.05C3325.84,1313.05 3327.27,1312.55 3328.31,1311.62L3329.35,1313.35Z" style="fill:rgb(57,120,189);fill-rule:nonzero;"/>
    </g>
    <g transform="matrix(4.16667,0,0,4.16667,-12581,-2901.78)">
        <path d="M3400.75,1312.7C3410.55,1312.7 3416.84,1306.47 3416.84,1297.65C3416.84,1288.84 3410.55,1282.6 3400.75,1282.6L3389.76,1282.6L3389.76,1312.7L3400.75,1312.7ZM3387.23,1280.32L3400.95,1280.32C3411.94,1280.32 3419.37,1287.55 3419.37,1297.65C3419.37,1307.75 3411.94,1314.98 3400.95,1314.98L3387.23,1314.98L3387.23,1280.32Z" style="fill:rgb(57,120,189);fill-rule:nonzero;"/>
    </g>
    <g transform="matrix(4.16667,0,0,4.16667,-12581,-2901.78)">
        <path d="M3426.99,1300.72L3446.79,1300.72C3446.45,1295.13 3442.39,1291.12 3436.89,1291.12C3431.4,1291.12 3427.38,1295.08 3426.99,1300.72ZM3449.17,1302.65L3426.94,1302.65C3427.19,1308.79 3431.69,1312.95 3437.88,1312.95C3441.15,1312.95 3444.17,1311.76 3446.15,1309.34L3447.59,1310.97C3445.31,1313.74 3441.74,1315.18 3437.83,1315.18C3430.01,1315.18 3424.51,1309.73 3424.51,1302.06C3424.51,1294.38 3429.81,1288.94 3436.89,1288.94C3443.97,1288.94 3449.22,1294.28 3449.22,1301.96C3449.22,1302.16 3449.17,1302.4 3449.17,1302.65Z" style="fill:rgb(57,120,189);fill-rule:nonzero;"/>
    </g>
    <g transform="matrix(4.16667,0,0,4.16667,-12581,-2901.78)">
        <path d="M3459.82,1285.37L3459.82,1289.13L3468.08,1289.13L3468.08,1291.26L3459.86,1291.26L3459.86,1314.98L3457.39,1314.98L3457.39,1291.26L3452.63,1291.26L3452.63,1289.13L3457.39,1289.13L3457.39,1285.17C3457.39,1280.87 3459.96,1278.04 3464.57,1278.04C3466.45,1278.04 3468.43,1278.59 3469.67,1279.73L3468.68,1281.61C3467.64,1280.67 3466.2,1280.17 3464.67,1280.17C3461.45,1280.17 3459.82,1281.96 3459.82,1285.37Z" style="fill:rgb(57,120,189);fill-rule:nonzero;"/>
    </g>
    <g transform="matrix(4.16667,0,0,4.16667,-12581,-2901.78)">
        <path d="M3493.19,1302.06C3493.19,1295.57 3488.73,1291.17 3482.79,1291.17C3476.85,1291.17 3472.39,1295.57 3472.39,1302.06C3472.39,1308.55 3476.85,1312.95 3482.79,1312.95C3488.73,1312.95 3493.19,1308.55 3493.19,1302.06ZM3469.86,1302.06C3469.86,1294.38 3475.36,1288.94 3482.79,1288.94C3490.22,1288.94 3495.71,1294.38 3495.71,1302.06C3495.71,1309.73 3490.22,1315.18 3482.79,1315.18C3475.36,1315.18 3469.86,1309.73 3469.86,1302.06Z" style="fill:rgb(57,120,189);fill-rule:nonzero;"/>
    </g>
    <g transform="matrix(4.16667,0,0,4.16667,-12581,-2901.78)">
        <rect x="3503.38" y="1278.24" width="2.48" height="36.74" style="fill:rgb(57,120,189);fill-rule:nonzero;"/>
    </g>
    <g transform="matrix(4.16667,0,0,4.16667,-12581,-2901.78)">
        <path d="M3536.81,1302.06C3536.81,1295.57 3532.35,1291.17 3526.41,1291.17C3520.47,1291.17 3516.01,1295.57 3516.01,1302.06C3516.01,1308.55 3520.47,1312.95 3526.41,1312.95C3532.35,1312.95 3536.81,1308.55 3536.81,1302.06ZM3539.28,1278.24L3539.28,1314.98L3536.86,1314.98L3536.86,1308.89C3534.82,1312.9 3530.91,1315.18 3526.26,1315.18C3518.98,1315.18 3513.48,1309.78 3513.48,1302.06C3513.48,1294.28 3518.98,1288.94 3526.26,1288.94C3530.86,1288.94 3534.73,1291.22 3536.81,1295.13L3536.81,1278.24L3539.28,1278.24Z" style="fill:rgb(57,120,189);fill-rule:nonzero;"/>
    </g>
</svg>
